<svg xmlns="http://www.w3.org/2000/svg" viewBox="0 0 128 128">
  <!-- Background circle -->
  <circle cx="64" cy="64" r="60" fill="#1a1a2e"/>
  <circle cx="64" cy="64" r="56" fill="#16213e"/>
  
  <!-- Chess knight silhouette -->
  <path d="M45 95 L45 75 L40 75 L40 70 L45 70 L45 55 C45 45 50 38 60 35 L55 30 L60 25 L65 32 C70 30 75 32 78 38 L85 35 L88 42 L80 45 C82 50 83 55 83 60 L83 70 L88 70 L88 75 L83 75 L83 95 Z" fill="#e0e0e0"/>
  
  <!-- Knight eye -->
  <circle cx="65" cy="45" r="4" fill="#1a1a2e"/>
  
  <!-- AI sparkle effects -->
  <circle cx="30" cy="35" r="3" fill="#3498db" opacity="0.8"/>
  <circle cx="98" cy="55" r="2" fill="#3498db" opacity="0.6"/>
  <circle cx="25" cy="85" r="2" fill="#2ecc71" opacity="0.7"/>
  <circle cx="100" cy="90" r="3" fill="#2ecc71" opacity="0.8"/>
  
  <!-- Subtle glow ring -->
  <circle cx="64" cy="64" r="58" fill="none" stroke="#3498db" stroke-width="1" opacity="0.3"/>
</svg>
